<?xml version="1.0" standalone="no"?>
<!DOCTYPE svg PUBLIC "-//W3C//DTD SVG 20010904//EN"
 "http://www.w3.org/TR/2001/REC-SVG-20010904/DTD/svg10.dtd">
<svg version="1.0" xmlns="http://www.w3.org/2000/svg"
 width="200.000000pt" height="31.000000pt" viewBox="0 0 200.000000 31.000000"
 preserveAspectRatio="xMidYMid meet">

<g transform="translate(0.000000,31.000000) scale(0.100000,-0.100000)"
fill="#000000" stroke="none">
<path d="M1305 263 c-33 -8 -55 -34 -55 -64 0 -32 26 -53 78 -64 19 -4 32 -13
32 -22 0 -13 -9 -14 -49 -9 -39 5 -50 3 -55 -10 -9 -23 -9 -22 34 -34 126 -34
187 86 62 122 -55 16 -54 34 1 31 37 -2 56 8 57 29 0 6 -68 29 -80 27 -3 -1
-14 -4 -25 -6z"/>
<path d="M1613 263 c-12 -2 -34 -18 -48 -34 -35 -43 -34 -98 3 -139 28 -31 47
-35 130 -32 l42 2 0 55 0 55 -45 0 c-41 0 -45 -2 -45 -25 0 -14 6 -25 13 -25
6 0 4 -5 -6 -11 -27 -16 -67 14 -67 50 0 38 22 55 64 48 21 -3 41 0 53 8 17
13 17 14 -2 29 -11 8 -25 16 -32 16 -6 0 -17 2 -25 4 -7 2 -23 1 -35 -1z"/>
<path d="M298 249 c-21 -12 -24 -59 -6 -77 15 -15 51 -15 66 0 7 7 12 24 12
38 0 44 -33 62 -72 39z"/>
<path d="M410 160 l0 -100 25 0 c23 0 25 3 26 53 0 47 1 50 14 32 45 -64 41
-62 61 -24 l19 34 3 -47 c3 -43 5 -48 28 -48 24 0 24 1 24 100 0 99 0 100 -24
100 -18 0 -31 -11 -49 -42 l-24 -42 -24 42 c-19 33 -30 42 -51 42 l-28 0 0
-100z"/>
<path d="M675 190 c19 -38 35 -83 35 -100 0 -25 4 -30 25 -30 22 0 25 4 25 33
0 18 16 62 36 100 l35 67 -30 0 c-25 0 -34 -7 -49 -35 l-18 -36 -17 36 c-14
29 -22 35 -47 35 l-30 0 35 -70z"/>
<path d="M850 160 l0 -102 71 4 c63 3 74 7 95 31 32 38 32 96 0 134 -21 24
-32 28 -95 31 l-71 4 0 -102z m124 34 c33 -32 8 -84 -40 -84 -22 0 -24 4 -24
50 0 46 2 50 24 50 14 0 32 -7 40 -16z"/>
<path d="M1070 160 l0 -100 80 0 c79 0 80 0 80 25 0 24 -3 25 -55 25 -42 0
-55 3 -55 15 0 11 12 15 50 15 43 0 50 3 50 20 0 17 -7 20 -50 20 -38 0 -50 4
-50 15 0 12 13 15 55 15 52 0 55 1 55 25 0 25 -1 25 -80 25 l-80 0 0 -100z"/>
<path d="M1450 160 l0 -100 30 0 30 0 0 100 0 100 -30 0 -30 0 0 -100z"/>
<path d="M1760 160 l0 -100 29 0 c28 0 30 2 33 48 l3 47 30 -47 c24 -38 36
-48 58 -48 l27 0 0 100 c0 99 0 100 -24 100 -23 0 -25 -4 -28 -52 l-3 -53 -34
53 c-27 43 -38 52 -62 52 l-29 0 0 -100z"/>
<path d="M60 175 c-7 -8 -10 -22 -6 -30 7 -19 45 -19 52 0 6 15 -11 45 -26 45
-4 0 -13 -7 -20 -15z"/>
</g>
</svg>
